<svg aria-hidden="true" style="position:absolute;width:0;height:0;overflow:hidden" xmlns="http://www.w3.org/2000/svg"><defs><symbol id="icon-arrow_left" viewBox="0 0 32 32"><path stroke-linejoin="round" stroke-linecap="round" stroke-width="2.666" d="M25.334 16H6.666M16 25.334 6.666 16 16 6.666"/></symbol><symbol id="icon-arrow_right" viewBox="0 0 32 32"><path stroke-linejoin="round" stroke-linecap="round" stroke-width="2.666" d="M6.666 16h18.668M16 25.334 25.334 16 16 6.666"/></symbol><symbol id="icon-close" viewBox="0 0 32 32"><path stroke-width="2.133" d="m8.533 8.533 14.933 14.933m-14.933.001L23.466 8.534"/></symbol><symbol id="icon-film" viewBox="0 0 32 32"><path style="stroke:var(--color1)" stroke-linejoin="round" stroke-linecap="round" stroke-width="2.667" d="M26.427 2.667H5.574a2.907 2.907 0 0 0-2.907 2.907v20.853a2.907 2.907 0 0 0 2.907 2.907v0h20.853a2.907 2.907 0 0 0 2.907-2.907v0V5.574a2.907 2.907 0 0 0-2.907-2.907v0zm-17.094 0v26.667M22.667 2.667v26.667M2.667 16h26.667M2.667 9.333h6.667M2.667 22.667h6.667m13.333 0h6.667M22.667 9.333h6.667"/></symbol><symbol id="icon-heart" viewBox="0 0 32 32"><path fill="#ff6b08" style="fill:var(--color2, #ff6b08)" d="m16 30.583-2.24-2.24C5.44 20.983 0 16.023 0 9.943c0-4.96 3.84-8.8 8.8-8.8 2.72 0 5.44 1.28 7.2 3.36 1.76-2.08 4.48-3.36 7.2-3.36 4.96 0 8.8 3.84 8.8 8.8 0 6.08-5.44 11.04-13.76 18.4L16 30.583z"/></symbol><symbol id="icon-points" viewBox="0 0 32 32"><path d="M5.174 12.8c.851 0 1.504.243 1.968.733.43.445.696 1.051.696 1.72l-.001.083v-.004l.001.072c0 .666-.265 1.269-.696 1.711v-.001c-.461.461-1.12.691-1.968.691-.813 0-1.456-.23-1.93-.691a2.37 2.37 0 0 1-.716-1.79v.004c0-.726.23-1.325.694-1.798.461-.49 1.11-.733 1.952-.733zm10.73 0c.848 0 1.504.243 1.968.733.43.445.696 1.051.696 1.72l-.001.083v-.004l.001.072c0 .666-.265 1.269-.696 1.711v-.001c-.464.461-1.12.691-1.968.691-.813 0-1.456-.23-1.933-.691a2.369 2.369 0 0 1-.712-1.697l.002-.09v.004c0-.726.23-1.325.691-1.798.461-.49 1.11-.733 1.952-.733zm10.72 0c.851 0 1.507.243 1.971.733.429.444.693 1.05.693 1.717l-.001.086v-.004l.001.075c0 .664-.264 1.266-.693 1.708l.001-.001c-.464.461-1.12.691-1.971.691-.813 0-1.456-.23-1.93-.691a2.373 2.373 0 0 1-.713-1.787v.004c0-.726.23-1.325.694-1.798.461-.49 1.114-.733 1.949-.733z"/></symbol><symbol id="icon-search" viewBox="0 0 32 32"><path stroke-linejoin="round" stroke-linecap="round" stroke-width="2.667" d="M14.667 25.333c5.891 0 10.667-4.776 10.667-10.667S20.558 3.999 14.667 3.999v0C8.776 3.999 4 8.775 4 14.666s4.776 10.667 10.667 10.667v0zM28 28l-5.8-5.8"/></symbol></defs></svg>